<?xml version="1.0" encoding="UTF-8"?>
<svg xmlns="http://www.w3.org/2000/svg" xmlns:xlink="http://www.w3.org/1999/xlink" width="131pt" height="38pt" viewBox="0 0 131 38" version="1.1">
<g id="surface1">
<path style=" stroke:none;fill-rule:nonzero;fill:rgb(0%,0%,0%);fill-opacity:1;" d="M 35.601562 0.144531 C 35.554688 0.238281 35.984375 1.003906 36.574219 1.863281 C 38.675781 5.003906 39.503906 7.316406 39.503906 10.121094 L 39.503906 11.476562 L 20.867188 11.476562 L 20.867188 17.789062 C 20.867188 24.945312 20.851562 25.089844 19.671875 27.496094 C 17.855469 31.179688 15.292969 32.898438 11.628906 32.898438 C 10.355469 32.898438 9.988281 32.835938 9.320312 32.515625 C 7.851562 31.800781 6.882812 30.554688 5.988281 28.214844 C 5.671875 27.367188 5.65625 27.019531 5.574219 17.054688 L 5.496094 6.773438 L 2.753906 6.726562 L 0 6.695312 L 0 15.667969 C 0 24.117188 0.015625 24.722656 0.320312 25.886719 C 1.148438 29.136719 3.902344 32.355469 6.945312 33.632812 C 9.253906 34.589844 12.441406 34.8125 14.910156 34.191406 C 16.167969 33.855469 18.175781 32.882812 19.65625 31.894531 L 20.867188 31.066406 L 20.867188 33.265625 L 22.746094 34.109375 C 23.765625 34.574219 25.089844 35.195312 25.695312 35.496094 L 26.761719 36.023438 L 26.761719 13.390625 L 39.503906 13.390625 L 39.503906 19 L 38.117188 17.566406 C 36.351562 15.765625 35.347656 15.238281 33.738281 15.238281 C 31.652344 15.269531 29.644531 16.738281 28.480469 19.078125 C 28.066406 19.941406 28.003906 20.195312 28.066406 21.089844 C 28.148438 22.476562 28.863281 23.878906 30.105469 25.167969 C 33.179688 28.308594 35.808594 28.53125 38.5 25.902344 L 39.503906 24.898438 L 39.503906 26.730469 L 40.746094 27.257812 C 41.414062 27.542969 42.070312 27.816406 42.179688 27.847656 C 42.324219 27.910156 42.371094 26.410156 42.371094 20.65625 L 42.371094 13.390625 L 45.714844 13.390625 L 45.714844 17.742188 C 45.714844 22.585938 45.796875 23.113281 46.6875 24.277344 C 47.4375 25.265625 48.425781 25.964844 49.570312 26.332031 C 50.429688 26.601562 50.910156 26.636719 52.804688 26.585938 C 54.683594 26.539062 55.160156 26.476562 55.832031 26.171875 C 56.261719 25.964844 56.753906 25.695312 56.914062 25.535156 C 57.199219 25.28125 57.199219 25.375 57.152344 28.851562 C 57.105469 32.945312 57.011719 33.3125 55.640625 34.683594 C 54.285156 36.023438 52.535156 36.660156 50.113281 36.660156 C 48.550781 36.660156 47.613281 36.40625 46.609375 35.703125 C 45.316406 34.828125 44.855469 33.535156 45.558594 32.835938 C 46.242188 32.148438 48.804688 31.242188 50.082031 31.242188 C 51.066406 31.242188 51.085938 31.050781 50.097656 29.742188 C 49.0625 28.371094 48.886719 28.308594 47.292969 28.785156 C 46.050781 29.152344 45.300781 29.582031 44.410156 30.398438 C 43.503906 31.257812 43.070312 32.40625 43.3125 33.28125 C 43.867188 35.195312 46.164062 36.980469 48.839844 37.539062 C 50.304688 37.839844 53.1875 37.839844 54.398438 37.539062 C 56.769531 36.917969 58.839844 35.402344 59.605469 33.742188 L 59.972656 32.914062 L 60.066406 16.304688 L 58.632812 15.796875 C 57.839844 15.523438 57.121094 15.300781 57.027344 15.300781 C 56.929688 15.300781 56.867188 16.386719 56.867188 18.523438 L 56.867188 21.757812 L 56.40625 22.746094 C 55.816406 23.988281 54.730469 25.089844 53.570312 25.613281 C 52.804688 25.964844 52.535156 26.011719 51.671875 25.933594 C 50.144531 25.789062 49.476562 25.34375 48.980469 24.179688 C 48.789062 23.703125 48.742188 22.730469 48.742188 18.488281 L 48.742188 13.390625 L 70.882812 13.390625 L 70.882812 15.714844 L 69.5 15.429688 C 66.996094 14.902344 65.261719 15.351562 63.652344 16.960938 C 62.28125 18.296875 61.882812 19.175781 61.882812 20.800781 C 61.882812 22.492188 62.394531 23.574219 63.875 25.023438 C 65.882812 26.984375 67.777344 27.816406 70.007812 27.703125 C 72.269531 27.589844 74.277344 26.332031 75.183594 24.46875 C 75.488281 23.84375 75.582031 23.335938 75.628906 22.21875 C 75.726562 20.324219 75.441406 19.429688 74.371094 18.265625 L 73.59375 17.40625 L 73.59375 13.390625 L 84.105469 13.390625 L 84.105469 15.09375 L 83.039062 15.207031 C 81.347656 15.382812 80.519531 15.605469 79.722656 16.113281 C 78.132812 17.117188 77.925781 19.207031 79.230469 20.929688 C 79.46875 21.230469 79.644531 21.503906 79.644531 21.566406 C 79.644531 21.613281 79.390625 21.742188 79.070312 21.835938 C 78.386719 22.078125 77.429688 22.875 77.238281 23.398438 C 76.96875 24.117188 77.367188 25.007812 78.433594 26.0625 C 80.488281 28.070312 81.414062 28.164062 84.980469 26.699219 C 88.167969 25.390625 89.441406 25.34375 90.398438 26.492188 C 91.863281 28.230469 90.667969 30.78125 88.167969 31.257812 C 87.226562 31.449219 86.589844 31.210938 84.664062 29.964844 C 82.464844 28.5625 81.667969 28.308594 79.691406 28.40625 C 78.386719 28.484375 78.050781 28.5625 77.046875 29.058594 C 74.578125 30.285156 72.667969 33.011719 72.507812 35.511719 L 72.445312 36.742188 L 73.226562 35.546875 C 74.4375 33.710938 76.09375 32.308594 78.101562 31.402344 C 80.710938 30.222656 83.132812 30.347656 86.015625 31.800781 C 90.667969 34.144531 92.976562 32.757812 92.003906 28.214844 C 91.496094 25.839844 90.570312 24.308594 89.296875 23.734375 C 87.976562 23.128906 86.460938 23.414062 83.179688 24.898438 C 80.824219 25.949219 80.011719 26.140625 79.375 25.804688 C 78.324219 25.25 78.722656 24.070312 80.203125 23.335938 C 80.949219 22.96875 81.367188 22.90625 83.339844 22.777344 C 86.460938 22.601562 87.480469 22.1875 88.023438 20.929688 C 88.34375 20.195312 88.308594 18.777344 87.976562 18.171875 C 87.6875 17.675781 87.6875 17.675781 88.070312 17.359375 C 88.277344 17.199219 88.5 17.054688 88.582031 17.054688 C 88.882812 17.054688 89.363281 17.726562 89.535156 18.394531 L 89.710938 19.09375 L 90.300781 18.425781 C 91.320312 17.277344 91.320312 17.292969 91.066406 16.785156 C 90.746094 16.210938 90.03125 15.523438 89.503906 15.316406 C 88.867188 15.078125 88.390625 15.269531 87.753906 15.988281 C 86.859375 16.992188 86.652344 16.785156 86.652344 14.902344 L 86.652344 13.390625 L 94.9375 13.390625 L 94.9375 34.238281 L 96.6875 35.148438 L 98.441406 36.039062 L 98.441406 17.675781 L 100.160156 19.207031 C 104.0625 22.730469 106.183594 23.542969 108.96875 22.585938 C 112.777344 21.28125 115.644531 17.742188 115.707031 14.234375 L 115.722656 13.070312 L 124.40625 13.070312 L 124.40625 15.269531 L 123.339844 15.367188 C 119.164062 15.75 116.917969 16.847656 116.917969 18.507812 C 116.917969 19.367188 117.109375 19.667969 117.96875 20.179688 L 118.6875 20.609375 L 117.777344 21.121094 C 116.472656 21.835938 115.914062 22.570312 115.898438 23.605469 C 115.882812 24.386719 115.914062 24.453125 116.710938 25.183594 C 119.308594 27.574219 125.074219 28.132812 128.832031 26.378906 L 129.980469 25.839844 L 129.980469 21.917969 L 129.550781 22.476562 C 128.738281 23.558594 127.335938 24.738281 126.238281 25.28125 C 122.90625 26.921875 118.832031 26.394531 118.832031 24.324219 C 118.832031 24.054688 118.941406 23.671875 119.070312 23.496094 C 119.453125 22.9375 120.773438 22.476562 122.222656 22.378906 C 122.941406 22.332031 123.832031 22.269531 124.214844 22.21875 C 124.882812 22.140625 124.882812 22.140625 124.882812 21.46875 L 124.882812 20.800781 L 122.941406 20.800781 C 121.472656 20.785156 120.820312 20.722656 120.390625 20.53125 C 119.308594 20.050781 119.46875 19.015625 120.710938 18.28125 C 122.015625 17.519531 124.691406 17.308594 126.683594 17.835938 L 127.75 18.105469 L 127.75 17.183594 C 127.75 16.273438 127.734375 16.242188 127.273438 16.082031 L 126.792969 15.90625 L 126.792969 13.070312 L 130.777344 13.070312 L 130.777344 11.15625 L 115.167969 11.15625 L 114.945312 10.617188 C 114.324219 9.132812 112.332031 6.789062 110.816406 5.753906 C 109.019531 4.527344 106.882812 4.222656 105.257812 4.972656 C 103.746094 5.675781 102.421875 6.664062 100.402344 8.671875 L 98.441406 10.566406 L 98.441406 5.417969 L 94.9375 5.417969 L 94.9375 11.476562 L 42.371094 11.476562 L 42.371094 10.472656 C 42.371094 6.949219 40.84375 2.550781 38.898438 0.429688 C 38.515625 0.03125 38.40625 0 37.097656 0 C 36.335938 0 35.664062 0.0625 35.601562 0.144531 Z M 111.152344 7.875 C 111.726562 8.175781 112.824219 9.355469 113.191406 10.042969 C 113.621094 10.871094 113.558594 12.433594 113.0625 13.546875 C 112.234375 15.382812 110.46875 17.277344 108.636719 18.296875 C 106.152344 19.703125 103.011719 19.621094 100.734375 18.105469 C 99.300781 17.152344 99.125 16.132812 100.097656 14.265625 C 100.910156 12.703125 104.015625 9.867188 106.152344 8.71875 C 108.09375 7.683594 110.132812 7.332031 111.152344 7.875 Z M 85.875 16.878906 C 86.269531 17.277344 86.335938 17.46875 86.335938 18.203125 C 86.335938 19.636719 85.1875 21.007812 83.386719 21.773438 C 82.609375 22.09375 81.574219 22.058594 81.015625 21.695312 C 78.722656 20.179688 81.207031 16.417969 84.472656 16.417969 C 85.285156 16.417969 85.460938 16.480469 85.875 16.878906 Z M 71.761719 17.199219 C 72.953125 17.742188 73.433594 18.554688 73.433594 20.003906 C 73.433594 21.40625 72.90625 22.523438 71.679688 23.75 C 70.246094 25.199219 68.542969 26.0625 67.125 26.0625 C 66.28125 26.0625 66.027344 25.996094 65.453125 25.582031 C 65.070312 25.3125 64.59375 24.851562 64.386719 24.546875 C 64.050781 24.070312 64.019531 23.84375 64.082031 22.953125 C 64.179688 21.453125 64.800781 20.148438 65.929688 19.078125 C 67.96875 17.136719 70.121094 16.449219 71.761719 17.199219 Z M 37.289062 17.964844 C 38.421875 18.570312 38.929688 19.367188 38.835938 20.324219 C 38.722656 21.296875 37.894531 22.632812 36.636719 23.910156 C 35.28125 25.28125 34.136719 25.886719 32.972656 25.902344 C 31.890625 25.902344 31.253906 25.503906 30.632812 24.417969 C 30.042969 23.414062 30.011719 21.789062 30.566406 20.722656 C 31.09375 19.71875 32.320312 18.601562 33.65625 17.917969 C 34.660156 17.421875 34.902344 17.359375 35.632812 17.421875 C 36.109375 17.46875 36.828125 17.691406 37.289062 17.964844 Z M 37.289062 17.964844 "/>
</g>
</svg>
